# xmcd
#
# Track frame offsets:
#	150
#	35822
#	72037
#	94973
#	123180
#	142083
#	164062
#	177008
#	206738
#	257282
#
# Disc length: 3765 seconds
#
# Revision: 1
# Processed by: cddbd v1.5.2PL0 Copyright (c) Steve Scherf et al.
# Submitted via: audiograbber 1.83.01
#
DISCID=900eb30a
DTITLE=Grateful Dead - 73-06-09A Robert F Kennedy Stadium, Washington DC
DYEAR=1900
DGENRE=
TTITLE0=Loose Lucy
TTITLE1=Row Jimmy
TTITLE2=Box Of Rain
TTITLE3=China Cat Sunflower
TTITLE4=I Know You Rider
TTITLE5=Greatest Story Ever Told
TTITLE6=Me and My Uncle
TTITLE7=Mississippi Half-Step
TTITLE8=Eyes Of The World
TTITLE9=China Doll
EXTD=
EXTT0=
EXTT1=
EXTT2=
EXTT3=
EXTT4=
EXTT5=
EXTT6=
EXTT7=
EXTT8=
EXTT9=
PLAYORDER=
